<?xml version="1.0" encoding="UTF-8" standalone="no"?>
<!-- Created with Inkscape (http://www.inkscape.org/) -->

<svg
   xmlns:dc="http://purl.org/dc/elements/1.1/"
   xmlns:cc="http://creativecommons.org/ns#"
   xmlns:rdf="http://www.w3.org/1999/02/22-rdf-syntax-ns#"
   xmlns:svg="http://www.w3.org/2000/svg"
   xmlns="http://www.w3.org/2000/svg"
   xmlns:inkscape="http://www.inkscape.org/namespaces/inkscape"
   version="1.1"
   width="744.09448"
   height="1052.3622"
   id="svg2">
  <defs
     id="defs4">
    <inkscape:path-effect
       effect="spiro"
       id="path-effect3757" />
  </defs>
  <metadata
     id="metadata7">
    <rdf:RDF>
      <cc:Work
         rdf:about="">
        <dc:format>image/svg+xml</dc:format>
        <dc:type
           rdf:resource="http://purl.org/dc/dcmitype/StillImage" />
        <dc:title></dc:title>
      </cc:Work>
    </rdf:RDF>
  </metadata>
  <g
     id="layer1">
    <path
       d="m 399.31423,153.20706 c -22.50026,-3.66998 -64.06421,29.12627 -23.9375,11.25 28.61571,-11.89834 60.3382,55.35312 34.87912,6.43958 -3.64721,-5.89653 -7.29441,-11.79305 -10.94162,-17.68958 z m -30.5,5.90625 c -3.90777,1.40957 2.03295,1.82175 0,0 z m 85.15625,2.1875 c -7.33914,12.18888 -35.11423,48.18869 -4.24275,18.59972 3.63132,-10.15792 30.05666,-13.56758 4.24275,-18.59972 z m 29.09371,1.6875 c -6.5721,0.94123 4.7502,5.74443 0,0 z m -121.68746,1.3125 0.61092,0.3603 -0.61092,-0.3603 z m -3.90625,0.28125 c -1.52176,1.44896 2.68083,0.739 0,0 z m -5.65625,6.8125 c -1.15168,0.94803 1.36651,0.36779 0,0 z m 139.84376,9.3125 c 33.0956,77.15216 58.1911,160.32315 57.4375,244.90625 25.2261,9.76368 65.3421,-23.92484 97.695,-27.62807 57.6518,-15.74009 126.5869,-28.2537 178.4612,9.78432 31.381,24.36677 47.364,87.96853 64.2831,101.35546 2.1418,-35.82771 -19.2515,-75.8714 -45.2131,-97.69527 -25.0551,-21.39886 -63.1685,-38.67925 -99.8854,-37.66409 -64.4773,-0.0211 -126.7754,20.91855 -185.2471,46.5039 2.4185,-76.29672 0.023,-162.31856 -52.4687,-223.03125 -6.7677,-2.88017 -9.0684,-11.70559 -15.0625,-16.53125 z m 5.9062,1.5625 c -3.151,1.03338 3.2488,2.63452 0,0 z m 15,15.90625 c -4.43,2.81837 4.9723,2.92706 0,0 z m -190.96871,0.78125 c -59.61591,57.46132 -61.28868,148.29914 -59.25,225.59375 -74.98634,-28.40804 -159.8463,-55.81432 -239.313472,-30.11308 -28.4822902,6.06389 -48.39272,24.86909 -69.03962,50.97158 -16.43849,27.26096 -50.43627,97.84577 -14.33441,108.3915 53.7127098,-5.00945 30.56191,-55.2333 3.7658,-77.6398 8.40197,-38.59489 61.6848798,-52.73896 92.72789,-74.76386 58.28576,-19.84772 121.956582,-0.44743 178.758552,16.82854 30.49413,20.33624 67.51014,19.00305 55.40695,-25.20665 -2.3383,-68.53704 14.23659,-135.97177 51.27831,-194.06198 z m 483.12501,176.8125 c -3.798,2.63121 4.6744,2.14638 0,0 z m 23.1875,23.03125 c -0.8244,1.06347 2.035,1.16452 0,0 z m 10.0937,3.90625 c -7.5786,0.0507 3.7936,4.59524 0,0 z m 7,6.4375 c -3.9025,1.61754 2.1845,1.51467 0,0 z m -2.9687,1.46875 c 2.3357,-0.84272 0.2371,2.0775 0,0 z m 1.6875,0.375 -0.55,0.57373 0.55,-0.57373 z m 1.0312,1.0625 -0.1562,0.0312 0.1562,-0.0312 z m 5.5,4.09375 0.3181,0.032 -0.3181,-0.032 z m -577.71871,9.1875 1.06516,2.53193 -1.06516,-2.53193 z m -1.03125,1.625 c -2.77613,0.82737 3.09869,3.13491 0,0 z m -12.03125,5.5 -0.46875,0.75 0.46875,-0.75 z m -6.125,7.0625 c -5.3314,2.78006 4.87322,2.32137 0,0 z m 611.62501,87.71875 c -57.6754,14.06754 46.6646,21.40315 11.4062,56.96875 -38.7786,79.36499 -129.534,111.45799 -208.75,135.125 -21.0962,-29.02894 -9.748,-0.90751 -19.125,4.25 -33.151,25.19814 26.2348,-6.92122 29.1491,25.52017 43.321,58.26182 87.9809,128.03856 72.8999,204.16553 -2.7534,25.79914 -7.3265,50.70104 11.3573,16.40814 2.6334,-41.13168 2.7485,-88.1057 -17.6036,-128.08402 -10.6359,-40.97997 -60.7535,-87.12016 -65.4349,-115.99842 74.5356,-23.05626 156.9202,-53.85921 197.8979,-125.02129 22.17,-27.94798 21.8534,-58.38874 -19.8929,-61.43301 -14.5949,-1.84187 7.572,-7.98248 8.096,-11.90085 z m -939.718762,33.21875 c -3.34385,1.80079 2.70642,4.76121 0,0 z m -1.375,6.5625 c -3.12387,0.49743 0.74877,1.30418 0,0 z m 1.5625,2.375 -0.65625,0.125 0.65625,-0.125 z m -1.5625,0.65625 c -2.00645,0.18912 1.73355,1.90476 0,0 z m 5.78125,3.4375 c 17.74997,36.14546 31.47517,76.88065 69.52662976,98.26458 C 46.095808,704.49017 100.94153,723.55535 156.09548,737.11331 109.46946,801.157 60.723518,877.00272 72.209758,959.8165 78.758468,948.69626 88.459238,897.19737 99.863498,871.57149 116.9743,825.34996 136.34537,779.24962 165.84548,739.39456 118.79111,707.18071 55.906498,684.79441 10.777118,642.95079 c -28.24189,-21.69863 -55.34926,-44.87773 -81.11914,-69.46248 z m -1.90625,6.15625 c -3.34456,-0.41466 2.59311,2.31405 0,0 z m 1.5625,0.53125 0.50554,0.0257 -0.50554,-0.0257 z m -0.28125,0.125 -0.20274,0.67572 0.20274,-0.67572 z m 0.25,0.46875 c -0.59718,0.7229 1.74845,1.34642 0,0 z m 4.625,3.625 0.15625,0.125 -0.15625,-0.125 z m 0.46875,8.125 0.20556,0.01 -0.20556,-0.01 z m -0.21875,1.0625 c -1.35731,4.03698 2.32665,-0.038 0,0 z m 227.437502,126.875 c -4.91902,1.88252 3.97068,4.43783 0,0 z m 8.625,12.09375 0.96875,1.71875 -0.96875,-1.71875 z m 254.46875,129.75 c -18.04835,7.53822 -33.78754,-7.77806 -21.75,20 -48.44408,78.86109 -115.13384,162.61389 -213.23768,175.01509 18.00065,7.3885 86.79894,-12.0713 113.70616,-40.5057 43.95651,-35.0144 77.74327,-80.80309 107.37527,-128.10314 45.46002,69.59794 101.30781,145.29064 186.50371,165.77554 35.1001,4.5719 -44.0955,-20.6538 -57.2164,-34.7039 -51.62,-36.5835 -93.5163,-88.55194 -122.79639,-143.4795 1.64451,-5.10312 6.00756,-8.82116 7.41533,-13.99839 z M 108.84548,979.4883 c -65.070452,7.0716 7.49658,62.1978 32.15625,78.9063 70.45842,4.7678 -71.331872,-11.2328 -24.53348,-52.9722 6.42997,-9.6479 10.56972,-28.1206 -7.62277,-25.9341 z m 582.09371,17.3126 c -22.9149,11.8218 36.7053,46.7006 -7.6665,56.1606 -40.2051,21.0546 53.077,-11.3685 21.2158,-38.3454 -9.364,-13.4264 52.4971,9.2199 25.6408,-9.5387 -13.158,-2.1968 -25.7593,-7.8669 -39.1901,-8.2765 z"
       id="path4298"
       style="font-size:medium;font-style:normal;font-variant:normal;font-weight:normal;font-stretch:normal;text-indent:0;text-align:start;text-decoration:none;line-height:normal;letter-spacing:normal;word-spacing:normal;text-transform:none;direction:ltr;block-progression:tb;writing-mode:lr-tb;text-anchor:start;baseline-shift:baseline;color:#000000;fill:#f59ebf;fill-opacity:1;fill-rule:nonzero;stroke:none;stroke-width:0.85768807;marker:none;visibility:visible;display:inline;overflow:visible;enable-background:accumulate;font-family:Sans;-inkscape-font-specification:Sans" />
    <path
       d="m -409.62424,173.94576 a 40.962425,31.859663 0 1 1 -81.92486,0 40.962425,31.859663 0 1 1 81.92486,0 z"
       id="path4287"
       style="fill:#000000;fill-opacity:0;fill-rule:nonzero;stroke:none" />
    <path
       d="m -382.31598,419.72031 a 175.22815,125.16296 0 1 1 -350.4563,0 175.22815,125.16296 0 1 1 350.4563,0 z"
       id="path4289"
       style="fill:#ffd5d5;fill-opacity:0;fill-rule:nonzero;stroke:none" />
    <path
       d="m -511.87965,797.6377 -136.38138,-7.78691 74.78081,-114.23177 z"
       id="path4293"
       style="fill:#ffd5d5;fill-opacity:0;fill-rule:nonzero;stroke:none" />
    <g
       transform="translate(236.67179,161.57401)"
       id="g4456">
      <path
         d="m 294.28572,698.07648 a 51.42857,45.714287 0 1 1 -102.85714,0 51.42857,45.714287 0 1 1 102.85714,0 z"
         transform="matrix(1.4424483,0,0,1.4294429,-179.63207,-557.65895)"
         id="path2985"
         style="fill:#f9db26;fill-opacity:1;fill-rule:nonzero;stroke:#f5f71f;stroke-opacity:1" />
      <rect
         width="341.35355"
         height="9.1027613"
         x="6.8270988"
         y="438.9411"
         id="rect4337"
         style="fill:#f59ebf;fill-opacity:1;fill-rule:nonzero;stroke:#fad500;stroke-width:5.97399998;stroke-linecap:round;stroke-linejoin:round;stroke-miterlimit:4;stroke-opacity:1;stroke-dasharray:none;stroke-dashoffset:0" />
      <rect
         width="341.35355"
         height="9.1027613"
         x="281.91846"
         y="-182.05527"
         transform="matrix(0,1,-1,0,0,0)"
         id="rect4337-2"
         style="fill:#f59ebf;fill-opacity:1;fill-rule:nonzero;stroke:#fad500;stroke-width:5.97399998;stroke-linecap:round;stroke-linejoin:round;stroke-miterlimit:4;stroke-opacity:1;stroke-dasharray:none;stroke-dashoffset:0" />
      <rect
         width="341.35355"
         height="9.1027613"
         x="-277.06287"
         y="461.69843"
         transform="matrix(0.84285752,-0.53813679,0.53813679,0.84285752,0,0)"
         id="rect4337-9"
         style="fill:#f59ebf;fill-opacity:1;fill-rule:nonzero;stroke:#fad500;stroke-width:5.97399998;stroke-linecap:round;stroke-linejoin:round;stroke-miterlimit:4;stroke-opacity:1;stroke-dasharray:none;stroke-dashoffset:0" />
      <rect
         width="341.35355"
         height="9.1027613"
         x="-75.337326"
         y="-470.4147"
         transform="matrix(-0.84285752,0.53813679,-0.53813679,-0.84285752,0,0)"
         id="rect4337-2-3"
         style="fill:#f59ebf;fill-opacity:1;fill-rule:nonzero;stroke:#fad500;stroke-width:5.97399998;stroke-linecap:round;stroke-linejoin:round;stroke-miterlimit:4;stroke-opacity:1;stroke-dasharray:none;stroke-dashoffset:0" />
      <rect
         width="341.35355"
         height="9.1027613"
         x="295.18655"
         y="90.788063"
         transform="matrix(0.53813679,0.84285752,-0.84285752,0.53813679,0,0)"
         id="rect4389"
         style="fill:#f59ebf;fill-opacity:1;fill-rule:nonzero;stroke:#fad500;stroke-width:5.97399998;stroke-linecap:round;stroke-linejoin:round;stroke-miterlimit:4;stroke-opacity:1;stroke-dasharray:none;stroke-dashoffset:0" />
      <rect
         width="341.35355"
         height="9.1027613"
         x="-480.96924"
         y="353.28925"
         transform="matrix(-0.94326524,-0.33204019,-0.33204019,0.94326524,0,0)"
         id="rect4337-9-3"
         style="fill:#f59ebf;fill-opacity:1;fill-rule:nonzero;stroke:#fad500;stroke-width:5.97399998;stroke-linecap:round;stroke-linejoin:round;stroke-miterlimit:4;stroke-opacity:1;stroke-dasharray:none;stroke-dashoffset:0" />
      <rect
         width="341.35355"
         height="9.1027613"
         x="-192.244"
         y="-477.50803"
         transform="matrix(-0.94326524,0.33204019,-0.33204019,-0.94326524,0,0)"
         id="rect4337-2-3-9"
         style="fill:#f59ebf;fill-opacity:1;fill-rule:nonzero;stroke:#fad500;stroke-width:5.97399998;stroke-linecap:round;stroke-linejoin:round;stroke-miterlimit:4;stroke-opacity:1;stroke-dasharray:none;stroke-dashoffset:0" />
      <rect
         width="341.35355"
         height="9.1027613"
         x="313.01276"
         y="-22.340509"
         transform="matrix(0.33204019,0.94326524,-0.94326524,0.33204019,0,0)"
         id="rect4389-6"
         style="fill:#f59ebf;fill-opacity:1;fill-rule:nonzero;stroke:#fad500;stroke-width:5.97399998;stroke-linecap:round;stroke-linejoin:round;stroke-miterlimit:4;stroke-opacity:1;stroke-dasharray:none;stroke-dashoffset:0" />
      <rect
         width="341.35355"
         height="9.1027613"
         x="-241.47923"
         y="465.09232"
         transform="matrix(0.86868024,-0.49537323,0.49537323,0.86868024,0,0)"
         id="rect4337-3"
         style="fill:#f59ebf;fill-opacity:1;fill-rule:nonzero;stroke:#fad500;stroke-width:5.97399998;stroke-linecap:round;stroke-linejoin:round;stroke-miterlimit:4;stroke-opacity:1;stroke-dasharray:none;stroke-dashoffset:0" />
      <rect
         width="341.35355"
         height="9.1027613"
         x="308.06967"
         y="66.251106"
         transform="matrix(0.49537323,0.86868024,-0.86868024,0.49537323,0,0)"
         id="rect4337-2-7"
         style="fill:#f59ebf;fill-opacity:1;fill-rule:nonzero;stroke:#fad500;stroke-width:5.97399998;stroke-linecap:round;stroke-linejoin:round;stroke-miterlimit:4;stroke-opacity:1;stroke-dasharray:none;stroke-dashoffset:0" />
      <rect
         width="341.35355"
         height="9.1027613"
         x="-500.42267"
         y="350.1174"
         transform="matrix(0.46559511,-0.88499785,0.88499785,0.46559511,0,0)"
         id="rect4337-9-6"
         style="fill:#f59ebf;fill-opacity:1;fill-rule:nonzero;stroke:#fad500;stroke-width:5.97399998;stroke-linecap:round;stroke-linejoin:round;stroke-miterlimit:4;stroke-opacity:1;stroke-dasharray:none;stroke-dashoffset:0" />
      <rect
         width="341.35355"
         height="9.1027613"
         x="148.02251"
         y="-358.83368"
         transform="matrix(-0.46559511,0.88499785,-0.88499785,-0.46559511,0,0)"
         id="rect4337-2-3-6"
         style="fill:#f59ebf;fill-opacity:1;fill-rule:nonzero;stroke:#fad500;stroke-width:5.97399998;stroke-linecap:round;stroke-linejoin:round;stroke-miterlimit:4;stroke-opacity:1;stroke-dasharray:none;stroke-dashoffset:0" />
      <rect
         width="341.35355"
         height="9.1027613"
         x="183.60553"
         y="314.14789"
         transform="matrix(0.88499785,0.46559511,-0.46559511,0.88499785,0,0)"
         id="rect4389-2"
         style="fill:#f59ebf;fill-opacity:1;fill-rule:nonzero;stroke:#fad500;stroke-width:5.97399998;stroke-linecap:round;stroke-linejoin:round;stroke-miterlimit:4;stroke-opacity:1;stroke-dasharray:none;stroke-dashoffset:0" />
      <rect
         width="341.35355"
         height="9.1027613"
         x="-255.43375"
         y="460.40448"
         transform="matrix(-0.9838797,0.1788316,0.1788316,0.9838797,0,0)"
         id="rect4337-9-3-5"
         style="fill:#f59ebf;fill-opacity:1;fill-rule:nonzero;stroke:#fad500;stroke-width:5.97399998;stroke-linecap:round;stroke-linejoin:round;stroke-miterlimit:4;stroke-opacity:1;stroke-dasharray:none;stroke-dashoffset:0" />
      <rect
         width="341.35355"
         height="9.1027613"
         x="50.658009"
         y="-419.72787"
         transform="matrix(-0.65491205,0.7557051,-0.7557051,-0.65491205,0,0)"
         id="rect4337-2-3-9-1"
         style="fill:#f59ebf;fill-opacity:1;fill-rule:nonzero;stroke:#fad500;stroke-width:5.97399998;stroke-linecap:round;stroke-linejoin:round;stroke-miterlimit:4;stroke-opacity:1;stroke-dasharray:none;stroke-dashoffset:0" />
      <rect
         width="341.35355"
         height="9.1027613"
         x="255.2326"
         y="220.56152"
         transform="matrix(0.7557051,0.65491205,-0.65491205,0.7557051,0,0)"
         id="rect4389-6-0"
         style="fill:#f59ebf;fill-opacity:1;fill-rule:nonzero;stroke:#fad500;stroke-width:5.97399998;stroke-linecap:round;stroke-linejoin:round;stroke-miterlimit:4;stroke-opacity:1;stroke-dasharray:none;stroke-dashoffset:0" />
      <path
         d="m -329.97507,736.04126 a 52.340874,38.686733 0 1 1 -104.68175,0 52.340874,38.686733 0 1 1 104.68175,0 z"
         transform="translate(555.26841,-298.11542)"
         id="path4454"
         style="fill:#f8ca0d;fill-opacity:1;fill-rule:nonzero;stroke:#fadd00;stroke-width:5.97399998;stroke-linecap:round;stroke-linejoin:round;stroke-miterlimit:4;stroke-opacity:1;stroke-dasharray:none;stroke-dashoffset:0" />
    </g>
  </g>
</svg>
